<svg xmlns="http://www.w3.org/2000/svg" viewBox="0 0 1388 499"><path fill="#06c167" d="M-.63.16H1388.4V498.4H-.63z"/><path d="M955.27 269.69c0-21-16.8-37.54-37.95-37.54-20.74-.34-37.82 16.2-38.16 36.93s16.2 37.82 36.93 38.16q.615.015 1.23 0c21.15 0 37.95-16.5 37.95-37.55m31-61.43v122.87H954.7V320a62.28 62.28 0 0 1-40 14.22c-37.38 0-66.64-28.73-66.64-64.57s29.26-64.56 66.64-64.56a62.28 62.28 0 0 1 40 14.22v-11.05zm105 95h-23.76c-7.24 0-11.88-3.13-11.88-9.67v-57.46h35.64v-27.87h-35.64v-35h-31.87v35h-24v27.87h24v65.42c0 16.5 11.88 29.58 33.32 29.58h34.19zm72 31c36.51 0 57.08-17.07 57.08-40.67 0-16.78-12.17-29.3-37.67-34.71l-26.94-5.4c-15.65-2.84-20.57-5.68-20.57-11.37 0-7.4 7.53-12 21.44-12 15.07 0 26.07 4 29.26 17.64h31.58c-1.74-25.61-20.57-42.67-58.81-42.67-33 0-56.22 13.37-56.22 39.25 0 17.92 12.76 29.58 40.28 35.27l30.13 6.83c11.88 2.27 15.07 5.4 15.07 10.24 0 7.68-9 12.51-23.47 12.51-18.25 0-28.68-4-32.74-17.64h-31.87c4.63 25.6 24.05 42.67 63.45 42.67M720.62 164.74H839.7v28.45h-86.92v40.66h84.61v27.6h-84.61v41.24h86.92v28.44H720.62zM664 231.23v-22.32h-8.46c-13.55 0-23.46 6.17-29.51 15.91v-15h-24.2V331h24.43v-68.9c0-18.76 11.61-30.87 27.58-30.87zm-175.61 28c4.36-18.52 19.6-30.87 37.74-30.87s33.38 12.35 37.49 30.87zm38.22-51.77c-34.71-.29-63.08 27.62-63.37 62.33v.6c0 36.09 28.54 63.16 65.55 63.16 22.5 0 40.88-9.73 53.21-25.88l-17.66-12.82c-9.18 12.11-21.28 17.81-35.55 17.81-20.24.14-37.58-14.46-40.88-34.43h100.37v-7.84c0-36.09-26.12-62.93-61.67-62.93M387 312.68c-23.28.23-42.34-18.45-42.57-41.73v-.27c0-23.51 19.11-42 42.57-42 23.21 0 42.03 18.82 42.03 42.03s-18.82 42.03-42.03 42.03M320.51 331h24.19v-15.2a62.13 62.13 0 0 0 44 18.05c36.29 0 64.83-28.26 64.83-63.16 0-35.14-28.54-63.4-64.83-63.4a61.5 61.5 0 0 0-43.77 18v-60.55h-24.42zm-85.87-19.47c23.47 0 41.6-17.81 41.6-44.17V164.74h25.41V331h-25.16v-15.48c-11.37 11.64-27.09 18.29-44.75 18.29-36.28 0-64.1-25.88-64.1-65.06v-104H193v102.57c0 26.84 17.9 44.17 41.6 44.17"/></svg>